# xmcd CD database file generated by libcdaudio 0.99.9
#
# Track frame offsets:
#       150
#       84932
#       132595
#       168260
#       188995
#       205405
#       211200
#
# Disc length: 3862 seconds
#
# Revision: 0
# Processed by: cddbd v1.5.1PL0 Copyright (c) Steve Scherf et al.
# Submitted via: libcdaudio 0.99.9
#
DISCID=5f0f1407
DTITLE=The Royal Philharmonic - REFRESHING CLASSIC - DISC 2
DYEAR=1900
DGENRE=
TTITLE0=ガーシュイン：パリのアメリカ人
TTITLE1=メンデルスゾーン：交響曲第4番 イ長調 作品90 イタリア 第一楽章
TTITLE2=ベートーウェン：交響曲第五番 ハ短調 作品67「運命」より第一楽章
TTITLE3=ビゼー：アルルの女 第一組曲 鐘
TTITLE4=ビゼー：アルルの女 第二組曲 ファランドール
TTITLE5=リムスキー・コルサコフ：スペイン奇想曲 作品34「アルボラーダ」
TTITLE6=ガーシュイン：ラプソディ・イン・ブルー
EXTD=
EXTT0=
EXTT1=
EXTT2=
EXTT3=
EXTT4=
EXTT5=
EXTT6=
PLAYORDER=
